# xmcd
#
# Track frame offsets:
#	222
#	17272
#	30875
#	48745
#	69550
#	86567
#	111547
#	125102
#	139290
#	159667
#
# Disc length: 2361 seconds
#
# Revision: 0
# Processed by: cddbd v1.4PL0 Copyright (c) Steve Scherf et al.
# Submitted via: dBpowerAMP V4.0
#
DISCID=8809370a
DTITLE=Oreo Blue - Earned the Right
DYEAR=1995
DGENRE=Blues
TTITLE0=Earned the Right
TTITLE1=Look at Me
TTITLE2=Dyin' by Degrees
TTITLE3=My Groove Won't Do You No Wrong
TTITLE4=Lied to Me for the Last Time
TTITLE5=Tell Me What You Need
TTITLE6=I'm Alright
TTITLE7=I Don't Want to be Lonely
TTITLE8=She Exudes the Blues
TTITLE9=Different Shades of Blue
EXTD=
EXTT0=
EXTT1=
EXTT2=
EXTT3=
EXTT4=
EXTT5=
EXTT6=
EXTT7=
EXTT8=
EXTT9=
PLAYORDER=
